<?xml version="1.0" encoding="utf-8"?>
<!-- Generator: Adobe Illustrator 25.0.0, SVG Export Plug-In . SVG Version: 6.00 Build 0)  -->
<svg version="1.1" id="图层_1" xmlns="http://www.w3.org/2000/svg" xmlns:xlink="http://www.w3.org/1999/xlink" x="0px" y="0px"
	 viewBox="0 0 36 36" style="enable-background:new 0 0 36 36;" xml:space="preserve">
<style type="text/css">
	.st0{fill:url(#SVGID_1_);}
	.st1{opacity:0.7;fill:#FFFFFF;}
	.st2{opacity:0.8;fill:#FFFFFF;}
	.st3{opacity:0.9;fill:#FFFFFF;}
	.st4{fill:#FFFFFF;}
	.st5{opacity:0.6;fill:#FFFFFF;}
	.st6{opacity:0.4;fill:#FFFFFF;}
</style>
<linearGradient id="SVGID_1_" gradientUnits="userSpaceOnUse" x1="5.3778" y1="28.2279" x2="29.6345" y2="8.2065">
	<stop  offset="0" style="stop-color:#4F3CFA"/>
	<stop  offset="1" style="stop-color:#6143E6"/>
</linearGradient>
<circle class="st0" cx="18" cy="17.8" r="16.9"/>
<g>
	<path class="st1" d="M16.7,9h-3.3c-0.7,0-1.3,0.6-1.3,1.3v3.1h4.6V9z"/>
	<rect x="12.1" y="13.4" class="st2" width="4.6" height="4.4"/>
	<rect x="12.1" y="17.8" class="st3" width="4.6" height="4.4"/>
	<path class="st1" d="M21.3,17.8h-4.6v4.4H20c0.7,0,1.3-0.6,1.3-1.3V17.8z"/>
	<path class="st4" d="M16.7,22.2h-4.6v3.6c0,0.4,0.3,0.8,0.8,0.8h2.3c0.8,0,1.5-0.7,1.5-1.5V22.2z"/>
	<rect x="16.7" y="9" class="st5" width="4.6" height="4.4"/>
	<path class="st6" d="M25.9,9h-4.6v4.4h3.2c0.8,0,1.4-0.6,1.4-1.4V9z"/>
</g>
</svg>
