<?xml version="1.0" encoding="utf-8"?>
<!-- Generator: Adobe Illustrator 23.0.2, SVG Export Plug-In . SVG Version: 6.00 Build 0)  -->
<svg version="1.1" id="图层_1" xmlns="http://www.w3.org/2000/svg" xmlns:xlink="http://www.w3.org/1999/xlink" x="0px" y="0px"
	 viewBox="0 0 96 96" style="enable-background:new 0 0 96 96;" xml:space="preserve">
<style type="text/css">
	.st0{fill:none;}
	.st1{fill:url(#SVGID_1_);}
</style>
<rect class="st0" width="96" height="96"/>
<linearGradient id="SVGID_1_" gradientUnits="userSpaceOnUse" x1="48" y1="73.8498" x2="48" y2="22.1502">
	<stop  offset="0" style="stop-color:#F56020"/>
	<stop  offset="1" style="stop-color:#ED1C24"/>
</linearGradient>
<path class="st1" d="M76.3,36.7l-2.6-3.7l-3.2-4.7l-3,4.8l-8.7,14.1l-3,4.8l3.2,4.7l3-4.8l8.7-14.1l2.6,3.7l-8.7,14.1l-3,4.8
	l-2.4,3.9l-2.6-3.7l-3.2-4.7l-2.3-3.3l6.3-9.2L51,28.8l-3-6.6l-3,6.6l-6.5,14.5l6.3,9.2l-2.3,3.3l-3.2,4.7l-2.6,3.7l-2.4-3.9l-3-4.8
	l-8.7-14.1l2.6-3.7L34,51.8l3,4.8l3.2-4.7l-3-4.8L28.5,33l-3-4.8l-3.2,4.7l-2.6,3.7l-3.2,4.7l3,4.8l8.7,14.1l3,4.8l2.4,3.9l3,4.8
	l3.2-4.7l2.6-3.7l3.2-4.7l2.4-3.5l2.4,3.5l3.2,4.7l2.6,3.7l3.2,4.7l3-4.8l2.4-3.9l3-4.8l8.7-14.1l3-4.8L76.3,36.7z M44.5,42.8l2-4.5
	l0,0l1.5-3.2l1.5,3.2l0,0l2,4.5L48,47.9L44.5,42.8z"/>
</svg>
